<?xml version="1.0" encoding="utf-8" standalone="no"?>
<!DOCTYPE svg PUBLIC "-//W3C//DTD SVG 1.1//EN"
  "http://www.w3.org/Graphics/SVG/1.1/DTD/svg11.dtd">
<!-- Created with matplotlib (http://matplotlib.org/) -->
<svg height="720pt" version="1.1" viewBox="0 0 720 720" width="720pt" xmlns="http://www.w3.org/2000/svg" xmlns:xlink="http://www.w3.org/1999/xlink">
 <defs>
  <style type="text/css">
*{stroke-linecap:butt;stroke-linejoin:round;}
  </style>
 </defs>
 <g id="figure_1">
  <g id="patch_1">
   <path d="M 0 720 
L 720 720 
L 720 0 
L 0 0 
z
" style="fill:#ffffff;"/>
  </g>
  <g id="axes_1">
   <g id="patch_2">
    <path clip-path="url(#p1c478de865)" d="M 380.990893 320.678467 
Q 391.126211 319.102439 414.634876 268.83537 
Q 430.998423 233.846248 443.208053 332.908443 
Q 445.073674 348.045058 449.352451 249.859435 
Q 458.27556 45.099791 475.641223 260.941136 
Q 484.643741 372.835265 486.683939 293.570667 
" style="stroke:#000000;stroke-linejoin:miter;"/>
   </g>
   <g id="patch_3">
    <path clip-path="url(#p1c478de865)" d="M 412.200244 351.686467 
Q 413.786506 341.616539 464.379985 318.259543 
Q 499.596308 302.001567 399.890853 289.870708 
Q 384.655949 288.017124 483.47914 283.765951 
Q 689.568393 274.900412 472.32548 257.646785 
Q 359.704766 248.702347 439.484069 246.675312 
" style="stroke:#000000;stroke-linejoin:miter;"/>
   </g>
   <g id="patch_4">
    <path clip-path="url(#p1c478de865)" d="M 412.200244 375.513533 
Q 413.786506 385.583461 464.379985 408.940457 
Q 499.596308 425.198433 399.890853 437.329292 
Q 384.655949 439.182876 483.47914 443.434049 
Q 689.568393 452.299588 472.32548 469.553215 
Q 359.704766 478.497653 439.484069 480.524688 
" style="stroke:#000000;stroke-linejoin:miter;"/>
   </g>
   <g id="patch_5">
    <path clip-path="url(#p1c478de865)" d="M 380.990893 406.521533 
Q 391.126211 408.097561 414.634876 458.36463 
Q 430.998423 493.353752 443.208053 394.291557 
Q 445.073674 379.154942 449.352451 477.340565 
Q 458.27556 682.100209 475.641223 466.258864 
Q 484.643741 354.364735 486.683939 433.629333 
" style="stroke:#000000;stroke-linejoin:miter;"/>
   </g>
   <g id="patch_6">
    <path clip-path="url(#p1c478de865)" d="M 357.009107 406.521533 
Q 346.873789 408.097561 323.365124 458.36463 
Q 307.001577 493.353752 294.791947 394.291557 
Q 292.926326 379.154942 288.647549 477.340565 
Q 279.72444 682.100209 262.358777 466.258864 
Q 253.356259 354.364735 251.316061 433.629333 
" style="stroke:#000000;stroke-linejoin:miter;"/>
   </g>
   <g id="patch_7">
    <path clip-path="url(#p1c478de865)" d="M 325.799756 375.513533 
Q 324.213494 385.583461 273.620015 408.940457 
Q 238.403692 425.198433 338.109147 437.329292 
Q 353.344051 439.182876 254.52086 443.434049 
Q 48.431607 452.299588 265.67452 469.553215 
Q 378.295234 478.497653 298.515931 480.524688 
" style="stroke:#000000;stroke-linejoin:miter;"/>
   </g>
   <g id="patch_8">
    <path clip-path="url(#p1c478de865)" d="M 325.799756 351.686467 
Q 324.213494 341.616539 273.620015 318.259543 
Q 238.403692 302.001567 338.109147 289.870708 
Q 353.344051 288.017124 254.52086 283.765951 
Q 48.431607 274.900412 265.67452 257.646785 
Q 378.295234 248.702347 298.515931 246.675312 
" style="stroke:#000000;stroke-linejoin:miter;"/>
   </g>
   <g id="patch_9">
    <path clip-path="url(#p1c478de865)" d="M 357.009107 320.678467 
Q 346.873789 319.102439 323.365124 268.83537 
Q 307.001577 233.846248 294.791947 332.908443 
Q 292.926326 348.045058 288.647549 249.859435 
Q 279.72444 45.099791 262.358777 260.941136 
Q 253.356259 372.835265 251.316061 293.570667 
" style="stroke:#000000;stroke-linejoin:miter;"/>
   </g>
   <g id="patch_10">
    <path clip-path="url(#p1c478de865)" d="M 380.990893 320.678467 
Q 391.126211 319.102439 414.634876 268.83537 
Q 430.998423 233.846248 443.208053 332.908443 
Q 445.073674 348.045058 449.352451 249.859435 
Q 458.27556 45.099791 475.641223 260.941136 
Q 484.643741 372.835265 486.683939 293.570667 
" style="stroke:#000000;stroke-linejoin:miter;"/>
   </g>
   <g id="patch_11">
    <path clip-path="url(#p1c478de865)" d="M 412.200244 351.686467 
Q 413.786506 341.616539 464.379985 318.259543 
Q 499.596308 302.001567 399.890853 289.870708 
Q 384.655949 288.017124 483.47914 283.765951 
Q 689.568393 274.900412 472.32548 257.646785 
Q 359.704766 248.702347 439.484069 246.675312 
" style="stroke:#000000;stroke-linejoin:miter;"/>
   </g>
  </g>
 </g>
 <defs>
  <clipPath id="p1c478de865">
   <rect height="554.4" width="558" x="90" y="86.4"/>
  </clipPath>
 </defs>
</svg>
