<?xml version="1.0" encoding="utf-8" standalone="no"?>
<!DOCTYPE svg PUBLIC "-//W3C//DTD SVG 1.1//EN"
  "http://www.w3.org/Graphics/SVG/1.1/DTD/svg11.dtd">
<!-- Created with matplotlib (http://matplotlib.org/) -->
<svg height="720pt" version="1.1" viewBox="0 0 720 720" width="720pt" xmlns="http://www.w3.org/2000/svg" xmlns:xlink="http://www.w3.org/1999/xlink">
 <defs>
  <style type="text/css">
*{stroke-linecap:butt;stroke-linejoin:round;}
  </style>
 </defs>
 <g id="figure_1">
  <g id="patch_1">
   <path d="M 0 720 
L 720 720 
L 720 0 
L 0 0 
z
" style="fill:#ffffff;"/>
  </g>
  <g id="axes_1">
   <g id="patch_2">
    <path clip-path="url(#p651fc10c61)" d="M 402.482635 247.297358 
Q 408.025748 245.512355 413.142509 353.173658 
Q 417.139985 437.284174 431.080415 330.589998 
Q 432.204564 321.986235 434.223865 363.252499 
Q 444.533525 573.939877 470.654066 290.130603 
Q 477.941347 210.951623 504.244753 310.854955 
" style="stroke:#000000;stroke-linejoin:miter;"/>
   </g>
   <g id="patch_3">
    <path clip-path="url(#p651fc10c61)" d="M 486.057854 330.333382 
Q 487.854448 324.826031 379.494045 319.742281 
Q 294.837357 315.770595 402.224353 301.920103 
Q 410.883985 300.803207 369.349758 298.796934 
Q 157.29428 288.553789 442.946471 262.601767 
Q 522.639601 255.3615 422.087546 229.227794 
" style="stroke:#000000;stroke-linejoin:miter;"/>
   </g>
   <g id="patch_4">
    <path clip-path="url(#p651fc10c61)" d="M 486.057854 396.866618 
Q 487.854448 402.373969 379.494045 407.457719 
Q 294.837357 411.429405 402.224353 425.279897 
Q 410.883985 426.396793 369.349758 428.403066 
Q 157.29428 438.646211 442.946471 464.598233 
Q 522.639601 471.8385 422.087546 497.972206 
" style="stroke:#000000;stroke-linejoin:miter;"/>
   </g>
   <g id="patch_5">
    <path clip-path="url(#p651fc10c61)" d="M 402.482635 479.902642 
Q 408.025748 481.687645 413.142509 374.026342 
Q 417.139985 289.915826 431.080415 396.610002 
Q 432.204564 405.213765 434.223865 363.947501 
Q 444.533525 153.260123 470.654066 437.069397 
Q 477.941347 516.248377 504.244753 416.345045 
" style="stroke:#000000;stroke-linejoin:miter;"/>
   </g>
   <g id="patch_6">
    <path clip-path="url(#p651fc10c61)" d="M 335.517365 479.902642 
Q 329.974252 481.687645 324.857491 374.026342 
Q 320.860015 289.915826 306.919585 396.610002 
Q 305.795436 405.213765 303.776135 363.947501 
Q 293.466475 153.260123 267.345934 437.069397 
Q 260.058653 516.248377 233.755247 416.345045 
" style="stroke:#000000;stroke-linejoin:miter;"/>
   </g>
   <g id="patch_7">
    <path clip-path="url(#p651fc10c61)" d="M 251.942146 396.866618 
Q 250.145552 402.373969 358.505955 407.457719 
Q 443.162643 411.429405 335.775647 425.279897 
Q 327.116015 426.396793 368.650242 428.403066 
Q 580.70572 438.646211 295.053529 464.598233 
Q 215.360399 471.8385 315.912454 497.972206 
" style="stroke:#000000;stroke-linejoin:miter;"/>
   </g>
   <g id="patch_8">
    <path clip-path="url(#p651fc10c61)" d="M 251.942146 330.333382 
Q 250.145552 324.826031 358.505955 319.742281 
Q 443.162643 315.770595 335.775647 301.920103 
Q 327.116015 300.803207 368.650242 298.796934 
Q 580.70572 288.553789 295.053529 262.601767 
Q 215.360399 255.3615 315.912454 229.227794 
" style="stroke:#000000;stroke-linejoin:miter;"/>
   </g>
   <g id="patch_9">
    <path clip-path="url(#p651fc10c61)" d="M 335.517365 247.297358 
Q 329.974252 245.512355 324.857491 353.173658 
Q 320.860015 437.284174 306.919585 330.589998 
Q 305.795436 321.986235 303.776135 363.252499 
Q 293.466475 573.939877 267.345934 290.130603 
Q 260.058653 210.951623 233.755247 310.854955 
" style="stroke:#000000;stroke-linejoin:miter;"/>
   </g>
   <g id="patch_10">
    <path clip-path="url(#p651fc10c61)" d="M 402.482635 247.297358 
Q 408.025748 245.512355 413.142509 353.173658 
Q 417.139985 437.284174 431.080415 330.589998 
Q 432.204564 321.986235 434.223865 363.252499 
Q 444.533525 573.939877 470.654066 290.130603 
Q 477.941347 210.951623 504.244753 310.854955 
" style="stroke:#000000;stroke-linejoin:miter;"/>
   </g>
   <g id="patch_11">
    <path clip-path="url(#p651fc10c61)" d="M 486.057854 330.333382 
Q 487.854448 324.826031 379.494045 319.742281 
Q 294.837357 315.770595 402.224353 301.920103 
Q 410.883985 300.803207 369.349758 298.796934 
Q 157.29428 288.553789 442.946471 262.601767 
Q 522.639601 255.3615 422.087546 229.227794 
" style="stroke:#000000;stroke-linejoin:miter;"/>
   </g>
  </g>
 </g>
 <defs>
  <clipPath id="p651fc10c61">
   <rect height="554.4" width="558" x="90" y="86.4"/>
  </clipPath>
 </defs>
</svg>
