<?xml version="1.0" encoding="utf-8" standalone="no"?>
<!DOCTYPE svg PUBLIC "-//W3C//DTD SVG 1.1//EN"
  "http://www.w3.org/Graphics/SVG/1.1/DTD/svg11.dtd">
<!-- Created with matplotlib (http://matplotlib.org/) -->
<svg height="720pt" version="1.1" viewBox="0 0 720 720" width="720pt" xmlns="http://www.w3.org/2000/svg" xmlns:xlink="http://www.w3.org/1999/xlink">
 <defs>
  <style type="text/css">
*{stroke-linecap:butt;stroke-linejoin:round;}
  </style>
 </defs>
 <g id="figure_1">
  <g id="patch_1">
   <path d="M 0 720 
L 720 720 
L 720 0 
L 0 0 
z
" style="fill:#ffffff;"/>
  </g>
  <g id="axes_1">
   <g id="patch_2">
    <path clip-path="url(#p7e3d401e5e)" d="M 392.581849 357.348781 
Q 394.187791 250.063378 398.168005 312.534195 
Q 404.031062 404.556859 410.743461 282.351548 
Q 439.934631 -249.100196 441.037525 321.982155 
Q 462.742796 11561.049336 490.679863 296.584006 
Q 502.506225 -4471.906997 508.174278 289.323482 
" style="stroke:#000000;stroke-linejoin:miter;"/>
   </g>
   <g id="patch_3">
    <path clip-path="url(#p7e3d401e5e)" d="M 375.291811 340.170292 
Q 483.273873 338.574711 420.397402 334.620175 
Q 327.777188 328.794945 450.77604 322.125852 
Q 985.678769 293.123012 410.888091 292.027234 
Q -10901.160046 270.461996 436.451163 242.705169 
Q 5235.906393 230.955105 443.758833 225.32362 
" style="stroke:#000000;stroke-linejoin:miter;"/>
   </g>
   <g id="patch_4">
    <path clip-path="url(#p7e3d401e5e)" d="M 375.291811 387.029708 
Q 483.273873 388.625289 420.397402 392.579825 
Q 327.777188 398.405055 450.77604 405.074148 
Q 985.678769 434.076988 410.888091 435.172766 
Q -10901.160046 456.738004 436.451163 484.494831 
Q 5235.906393 496.244895 443.758833 501.87638 
" style="stroke:#000000;stroke-linejoin:miter;"/>
   </g>
   <g id="patch_5">
    <path clip-path="url(#p7e3d401e5e)" d="M 392.581849 369.851219 
Q 394.187791 477.136622 398.168005 414.665805 
Q 404.031062 322.643141 410.743461 444.848452 
Q 439.934631 976.300196 441.037525 405.217845 
Q 462.742796 -10833.849336 490.679863 430.615994 
Q 502.506225 5199.106997 508.174278 437.876518 
" style="stroke:#000000;stroke-linejoin:miter;"/>
   </g>
   <g id="patch_6">
    <path clip-path="url(#p7e3d401e5e)" d="M 345.418151 369.851219 
Q 343.812209 477.136622 339.831995 414.665805 
Q 333.968938 322.643141 327.256539 444.848452 
Q 298.065369 976.300196 296.962475 405.217845 
Q 275.257204 -10833.849336 247.320137 430.615994 
Q 235.493775 5199.106997 229.825722 437.876518 
" style="stroke:#000000;stroke-linejoin:miter;"/>
   </g>
   <g id="patch_7">
    <path clip-path="url(#p7e3d401e5e)" d="M 362.708189 387.029708 
Q 254.726127 388.625289 317.602598 392.579825 
Q 410.222812 398.405055 287.22396 405.074148 
Q -247.678769 434.076988 327.111909 435.172766 
Q 11639.160046 456.738004 301.548837 484.494831 
Q -4497.906393 496.244895 294.241167 501.87638 
" style="stroke:#000000;stroke-linejoin:miter;"/>
   </g>
   <g id="patch_8">
    <path clip-path="url(#p7e3d401e5e)" d="M 362.708189 340.170292 
Q 254.726127 338.574711 317.602598 334.620175 
Q 410.222812 328.794945 287.22396 322.125852 
Q -247.678769 293.123012 327.111909 292.027234 
Q 11639.160046 270.461996 301.548837 242.705169 
Q -4497.906393 230.955105 294.241167 225.32362 
" style="stroke:#000000;stroke-linejoin:miter;"/>
   </g>
   <g id="patch_9">
    <path clip-path="url(#p7e3d401e5e)" d="M 345.418151 357.348781 
Q 343.812209 250.063378 339.831995 312.534195 
Q 333.968938 404.556859 327.256539 282.351548 
Q 298.065369 -249.100196 296.962475 321.982155 
Q 275.257204 11561.049336 247.320137 296.584006 
Q 235.493775 -4471.906997 229.825722 289.323482 
" style="stroke:#000000;stroke-linejoin:miter;"/>
   </g>
   <g id="patch_10">
    <path clip-path="url(#p7e3d401e5e)" d="M 392.581849 357.348781 
Q 394.187791 250.063378 398.168005 312.534195 
Q 404.031062 404.556859 410.743461 282.351548 
Q 439.934631 -249.100196 441.037525 321.982155 
Q 462.742796 11561.049336 490.679863 296.584006 
Q 502.506225 -4471.906997 508.174278 289.323482 
" style="stroke:#000000;stroke-linejoin:miter;"/>
   </g>
   <g id="patch_11">
    <path clip-path="url(#p7e3d401e5e)" d="M 375.291811 340.170292 
Q 483.273873 338.574711 420.397402 334.620175 
Q 327.777188 328.794945 450.77604 322.125852 
Q 985.678769 293.123012 410.888091 292.027234 
Q -10901.160046 270.461996 436.451163 242.705169 
Q 5235.906393 230.955105 443.758833 225.32362 
" style="stroke:#000000;stroke-linejoin:miter;"/>
   </g>
  </g>
 </g>
 <defs>
  <clipPath id="p7e3d401e5e">
   <rect height="554.4" width="558" x="90" y="86.4"/>
  </clipPath>
 </defs>
</svg>
