<?xml version="1.0" encoding="utf-8" standalone="no"?>
<!DOCTYPE svg PUBLIC "-//W3C//DTD SVG 1.1//EN"
  "http://www.w3.org/Graphics/SVG/1.1/DTD/svg11.dtd">
<!-- Created with matplotlib (http://matplotlib.org/) -->
<svg height="720pt" version="1.1" viewBox="0 0 720 720" width="720pt" xmlns="http://www.w3.org/2000/svg" xmlns:xlink="http://www.w3.org/1999/xlink">
 <defs>
  <style type="text/css">
*{stroke-linecap:butt;stroke-linejoin:round;}
  </style>
 </defs>
 <g id="figure_1">
  <g id="patch_1">
   <path d="M 0 720 
L 720 720 
L 720 0 
L 0 0 
z
" style="fill:#ffffff;"/>
  </g>
  <g id="axes_1">
   <g id="patch_2">
    <path clip-path="url(#p4905e06186)" d="M 388.269506 226.646646 
Q 397.150433 318.499819 402.96544 290.232569 
Q 403.154409 289.313976 407.795873 256.077807 
Q 421.203452 160.070051 424.960236 251.082836 
Q 441.648985 655.388699 455.273904 242.629484 
Q 459.657238 109.838874 482.104115 282.991449 
" style="stroke:#000000;stroke-linejoin:miter;"/>
   </g>
   <g id="patch_3">
    <path clip-path="url(#p4905e06186)" d="M 506.842662 344.454813 
Q 414.393039 335.631182 442.843843 329.853692 
Q 443.768401 329.665942 477.220389 325.054423 
Q 573.851572 311.733344 482.247795 308.000798 
Q 75.316569 291.419718 490.756039 277.882702 
Q 624.408926 273.527647 450.131984 251.225589 
" style="stroke:#000000;stroke-linejoin:miter;"/>
   </g>
   <g id="patch_4">
    <path clip-path="url(#p4905e06186)" d="M 506.842662 382.745187 
Q 414.393039 391.568818 442.843843 397.346308 
Q 443.768401 397.534058 477.220389 402.145577 
Q 573.851572 415.466656 482.247795 419.199202 
Q 75.316569 435.780282 490.756039 449.317298 
Q 624.408926 453.672353 450.131984 475.974411 
" style="stroke:#000000;stroke-linejoin:miter;"/>
   </g>
   <g id="patch_5">
    <path clip-path="url(#p4905e06186)" d="M 388.269506 500.553354 
Q 397.150433 408.700181 402.96544 436.967431 
Q 403.154409 437.886024 407.795873 471.122193 
Q 421.203452 567.129949 424.960236 476.117164 
Q 441.648985 71.811301 455.273904 484.570516 
Q 459.657238 617.361126 482.104115 444.208551 
" style="stroke:#000000;stroke-linejoin:miter;"/>
   </g>
   <g id="patch_6">
    <path clip-path="url(#p4905e06186)" d="M 349.730494 500.553354 
Q 340.849567 408.700181 335.03456 436.967431 
Q 334.845591 437.886024 330.204127 471.122193 
Q 316.796548 567.129949 313.039764 476.117164 
Q 296.351015 71.811301 282.726096 484.570516 
Q 278.342762 617.361126 255.895885 444.208551 
" style="stroke:#000000;stroke-linejoin:miter;"/>
   </g>
   <g id="patch_7">
    <path clip-path="url(#p4905e06186)" d="M 231.157338 382.745187 
Q 323.606961 391.568818 295.156157 397.346308 
Q 294.231599 397.534058 260.779611 402.145577 
Q 164.148428 415.466656 255.752205 419.199202 
Q 662.683431 435.780282 247.243961 449.317298 
Q 113.591074 453.672353 287.868016 475.974411 
" style="stroke:#000000;stroke-linejoin:miter;"/>
   </g>
   <g id="patch_8">
    <path clip-path="url(#p4905e06186)" d="M 231.157338 344.454813 
Q 323.606961 335.631182 295.156157 329.853692 
Q 294.231599 329.665942 260.779611 325.054423 
Q 164.148428 311.733344 255.752205 308.000798 
Q 662.683431 291.419718 247.243961 277.882702 
Q 113.591074 273.527647 287.868016 251.225589 
" style="stroke:#000000;stroke-linejoin:miter;"/>
   </g>
   <g id="patch_9">
    <path clip-path="url(#p4905e06186)" d="M 349.730494 226.646646 
Q 340.849567 318.499819 335.03456 290.232569 
Q 334.845591 289.313976 330.204127 256.077807 
Q 316.796548 160.070051 313.039764 251.082836 
Q 296.351015 655.388699 282.726096 242.629484 
Q 278.342762 109.838874 255.895885 282.991449 
" style="stroke:#000000;stroke-linejoin:miter;"/>
   </g>
   <g id="patch_10">
    <path clip-path="url(#p4905e06186)" d="M 388.269506 226.646646 
Q 397.150433 318.499819 402.96544 290.232569 
Q 403.154409 289.313976 407.795873 256.077807 
Q 421.203452 160.070051 424.960236 251.082836 
Q 441.648985 655.388699 455.273904 242.629484 
Q 459.657238 109.838874 482.104115 282.991449 
" style="stroke:#000000;stroke-linejoin:miter;"/>
   </g>
   <g id="patch_11">
    <path clip-path="url(#p4905e06186)" d="M 506.842662 344.454813 
Q 414.393039 335.631182 442.843843 329.853692 
Q 443.768401 329.665942 477.220389 325.054423 
Q 573.851572 311.733344 482.247795 308.000798 
Q 75.316569 291.419718 490.756039 277.882702 
Q 624.408926 273.527647 450.131984 251.225589 
" style="stroke:#000000;stroke-linejoin:miter;"/>
   </g>
  </g>
 </g>
 <defs>
  <clipPath id="p4905e06186">
   <rect height="554.4" width="558" x="90" y="86.4"/>
  </clipPath>
 </defs>
</svg>
