<?xml version="1.0" encoding="utf-8" standalone="no"?>
<!DOCTYPE svg PUBLIC "-//W3C//DTD SVG 1.1//EN"
  "http://www.w3.org/Graphics/SVG/1.1/DTD/svg11.dtd">
<!-- Created with matplotlib (http://matplotlib.org/) -->
<svg height="720pt" version="1.1" viewBox="0 0 720 720" width="720pt" xmlns="http://www.w3.org/2000/svg" xmlns:xlink="http://www.w3.org/1999/xlink">
 <defs>
  <style type="text/css">
*{stroke-linecap:butt;stroke-linejoin:round;}
  </style>
 </defs>
 <g id="figure_1">
  <g id="patch_1">
   <path d="M 0 720 
L 720 720 
L 720 0 
L 0 0 
z
" style="fill:#ffffff;"/>
  </g>
  <g id="axes_1">
   <g id="patch_2">
    <path clip-path="url(#p1ac7cb077c)" d="M 386.025332 287.612421 
Q 392.459033 358.301611 401.963961 236.004973 
Q 406.771491 174.148151 421.158781 232.872283 
Q 429.174417 265.589442 437.221282 326.00435 
Q 461.147919 505.642706 495.788418 264.532973 
Q 504.273231 205.475764 504.849634 236.818431 
" style="stroke:#000000;stroke-linejoin:miter;"/>
   </g>
   <g id="patch_3">
    <path clip-path="url(#p1ac7cb077c)" d="M 445.481005 346.684509 
Q 374.332794 340.292316 497.423566 330.84871 
Q 559.682056 326.072196 500.576598 311.777728 
Q 467.64699 303.813806 406.839778 295.818856 
Q 226.034939 272.046584 468.710319 237.629572 
Q 528.151016 229.199499 496.604826 228.626815 
" style="stroke:#000000;stroke-linejoin:miter;"/>
   </g>
   <g id="patch_4">
    <path clip-path="url(#p1ac7cb077c)" d="M 445.481005 380.515491 
Q 374.332794 386.907684 497.423566 396.35129 
Q 559.682056 401.127804 500.576598 415.422272 
Q 467.64699 423.386194 406.839778 431.381144 
Q 226.034939 455.153416 468.710319 489.570428 
Q 528.151016 498.000501 496.604826 498.573185 
" style="stroke:#000000;stroke-linejoin:miter;"/>
   </g>
   <g id="patch_5">
    <path clip-path="url(#p1ac7cb077c)" d="M 386.025332 439.587579 
Q 392.459033 368.898389 401.963961 491.195027 
Q 406.771491 553.051849 421.158781 494.327717 
Q 429.174417 461.610558 437.221282 401.19565 
Q 461.147919 221.557294 495.788418 462.667027 
Q 504.273231 521.724236 504.849634 490.381569 
" style="stroke:#000000;stroke-linejoin:miter;"/>
   </g>
   <g id="patch_6">
    <path clip-path="url(#p1ac7cb077c)" d="M 351.974668 439.587579 
Q 345.540967 368.898389 336.036039 491.195027 
Q 331.228509 553.051849 316.841219 494.327717 
Q 308.825583 461.610558 300.778718 401.19565 
Q 276.852081 221.557294 242.211582 462.667027 
Q 233.726769 521.724236 233.150366 490.381569 
" style="stroke:#000000;stroke-linejoin:miter;"/>
   </g>
   <g id="patch_7">
    <path clip-path="url(#p1ac7cb077c)" d="M 292.518995 380.515491 
Q 363.667206 386.907684 240.576434 396.35129 
Q 178.317944 401.127804 237.423402 415.422272 
Q 270.35301 423.386194 331.160222 431.381144 
Q 511.965061 455.153416 269.289681 489.570428 
Q 209.848984 498.000501 241.395174 498.573185 
" style="stroke:#000000;stroke-linejoin:miter;"/>
   </g>
   <g id="patch_8">
    <path clip-path="url(#p1ac7cb077c)" d="M 292.518995 346.684509 
Q 363.667206 340.292316 240.576434 330.84871 
Q 178.317944 326.072196 237.423402 311.777728 
Q 270.35301 303.813806 331.160222 295.818856 
Q 511.965061 272.046584 269.289681 237.629572 
Q 209.848984 229.199499 241.395174 228.626815 
" style="stroke:#000000;stroke-linejoin:miter;"/>
   </g>
   <g id="patch_9">
    <path clip-path="url(#p1ac7cb077c)" d="M 351.974668 287.612421 
Q 345.540967 358.301611 336.036039 236.004973 
Q 331.228509 174.148151 316.841219 232.872283 
Q 308.825583 265.589442 300.778718 326.00435 
Q 276.852081 505.642706 242.211582 264.532973 
Q 233.726769 205.475764 233.150366 236.818431 
" style="stroke:#000000;stroke-linejoin:miter;"/>
   </g>
   <g id="patch_10">
    <path clip-path="url(#p1ac7cb077c)" d="M 386.025332 287.612421 
Q 392.459033 358.301611 401.963961 236.004973 
Q 406.771491 174.148151 421.158781 232.872283 
Q 429.174417 265.589442 437.221282 326.00435 
Q 461.147919 505.642706 495.788418 264.532973 
Q 504.273231 205.475764 504.849634 236.818431 
" style="stroke:#000000;stroke-linejoin:miter;"/>
   </g>
   <g id="patch_11">
    <path clip-path="url(#p1ac7cb077c)" d="M 445.481005 346.684509 
Q 374.332794 340.292316 497.423566 330.84871 
Q 559.682056 326.072196 500.576598 311.777728 
Q 467.64699 303.813806 406.839778 295.818856 
Q 226.034939 272.046584 468.710319 237.629572 
Q 528.151016 229.199499 496.604826 228.626815 
" style="stroke:#000000;stroke-linejoin:miter;"/>
   </g>
  </g>
 </g>
 <defs>
  <clipPath id="p1ac7cb077c">
   <rect height="554.4" width="558" x="90" y="86.4"/>
  </clipPath>
 </defs>
</svg>
