<?xml version="1.0" encoding="utf-8" ?>
<svg baseProfile="tiny" height="1000" stroke="rgb(80,100,120)" stroke-width="1" version="1.2" width="1000" xmlns="http://www.w3.org/2000/svg" xmlns:ev="http://www.w3.org/2001/xml-events" xmlns:xlink="http://www.w3.org/1999/xlink"><defs /><path d="M 500.0 100.0 C 537 100 572 105 606 114 C 640 124 672 137 702 155 C 731 172 759 193 783 217 C 807 241 828 269 845 298 C 863 328 876 360 886 394 C 895 428 900 463 900 500 C 900 537 895 572 886 606 C 876 640 863 672 845 702 C 828 731 807 759 783 783 C 759 807 731 828 702 845 C 672 863 640 876 606 886 C 572 895 537 900 500 900 C 463 900 428 895 394 886 C 360 876 328 863 298 845 C 269 828 241 807 217 783 C 193 759 172 731 155 702 C 137 672 124 640 114 606 C 105 572 100 537 100 500 C 100 463 105 428 114 394 C 124 360 137 328 155 298 C 172 269 193 241 217 217 C 241 193 269 172 298 155 C 328 137 360 124 394 114 C 428 105 463 100 500 100" fill="none" /></svg>